<svg width="500" height="500" viewBox="0 0 500 500" fill="none" xmlns="http://www.w3.org/2000/svg">
<path fill-rule="evenodd" clip-rule="evenodd" d="M207.596 224.805L250.143 319.127L313.471 282.612H313.55V209.584L207.596 224.805Z" fill="#2BBDF7"/>
<path fill-rule="evenodd" clip-rule="evenodd" d="M395.168 154.81L355.736 139.944L313.504 136.514V209.542V363.328L376.872 399.842L426.951 297.673L395.405 198.58L395.168 154.81Z" fill="#2891F9"/>
<path fill-rule="evenodd" clip-rule="evenodd" d="M391.623 136.551L376.915 173.026V399.998L440.282 363.483V136.551H391.623Z" fill="#2BBDF7"/>
<path fill-rule="evenodd" clip-rule="evenodd" d="M376.92 100.041L313.553 136.555L376.92 173.07L440.288 136.555L376.92 100.041Z" fill="#2B6DEF"/>
<path fill-rule="evenodd" clip-rule="evenodd" d="M250.182 246.056L186.775 175.157L60 136.514V363.486L123.368 400L141.506 274.408L186.775 282.61V282.571L250.182 319.085V246.056Z" fill="#2891F9"/>
<path fill-rule="evenodd" clip-rule="evenodd" d="M123.407 100L60 136.514L250.142 246.096L278.888 229.535L313.549 209.582L123.407 100Z" fill="#2B6DEF"/>
<path fill-rule="evenodd" clip-rule="evenodd" d="M123.409 246.059H123.369V399.963L186.776 363.448V282.612V282.573L123.409 246.059Z" fill="#2BBDF7"/>
</svg>
